<svg id="visual" viewBox="0 0 960 540" width="960" height="540" xmlns="http://www.w3.org/2000/svg" xmlns:xlink="http://www.w3.org/1999/xlink" version="1.1"><g transform="translate(476.20577309610036 288.79457282060963)"><path d="M55.3 -106.3C63 -91.4 54.4 -58.9 75.8 -38.3C97.3 -17.7 148.6 -8.8 151.5 1.7C154.4 12.2 108.8 24.3 89 47.7C69.1 71.1 75.1 105.7 64.5 110.9C54 116.2 27 92.1 11.3 72.5C-4.3 52.8 -8.7 37.7 -12.3 28.5C-16 19.2 -19 15.9 -45.8 12.2C-72.6 8.4 -123.3 4.2 -138.6 -8.8C-153.8 -21.8 -133.6 -43.7 -121.5 -72.9C-109.4 -102.1 -105.3 -138.7 -86.4 -147.2C-67.5 -155.6 -33.8 -135.8 -5 -127.2C23.8 -118.6 47.7 -121.2 55.3 -106.3" fill="#009df9"></path></g></svg>