<svg version="1.1" id="Layer_1" xmlns="http://www.w3.org/2000/svg" xmlns:xlink="http://www.w3.org/1999/xlink" x="0px" y="0px"
	 width="100%" viewBox="0 0 1200 600" enable-background="new 0 0 1200 600" xml:space="preserve">
<path fill="#C8102E" opacity="1.000000" stroke="none" 
	d="
M661.000000,601.000000 
	C621.312439,601.000000 581.624878,601.000000 541.468994,600.531372 
	C541.000732,520.467773 541.000732,440.872864 541.000732,361.000000 
	C360.602692,361.000000 180.801346,361.000000 1.000000,361.000000 
	C1.000000,321.312439 1.000000,281.624878 1.468657,241.469299 
	C181.529617,241.001266 361.121918,241.001266 541.000000,241.001266 
	C541.000000,160.608002 541.000000,80.804001 541.000000,1.000000 
	C580.687561,1.000000 620.375122,1.000000 660.530640,1.468657 
	C660.998596,81.532402 660.998596,161.127487 660.998596,241.000000 
	C841.396973,241.000000 1021.198486,241.000000 1201.000000,241.000000 
	C1201.000000,280.687561 1201.000000,320.375122 1200.531372,360.530975 
	C1020.470581,360.999268 840.878479,360.999268 661.000000,360.999268 
	C661.000000,441.392181 661.000000,521.196106 661.000000,601.000000 
z"/>
<path fill="#FFFEFE" opacity="1.000000" stroke="none" 
	d="
M540.531372,1.000000 
	C541.000000,80.804001 541.000000,160.608002 541.000000,241.001266 
	C361.121918,241.001266 181.529617,241.001266 1.468657,241.000641 
	C1.000000,227.979111 1.000000,214.958206 1.468657,201.468658 
	C89.613708,200.999985 177.290100,200.999985 264.966492,200.999985 
	C264.296204,199.773849 263.483734,199.331726 262.656952,198.918182 
	C176.769669,155.958481 90.882874,112.997803 4.977191,70.074913 
	C3.773049,69.473259 2.331009,69.347740 1.000000,69.000000 
	C1.000000,61.645748 1.000000,54.291500 1.359594,46.508408 
	C103.398201,96.913658 205.071915,147.758377 306.786407,198.521347 
	C309.363464,199.807495 312.384918,200.875717 315.206726,200.894394 
	C342.026550,201.072037 368.848022,201.004593 395.669037,200.985901 
	C396.829742,200.985092 397.990326,200.773331 400.026733,200.574188 
	C397.796173,199.415482 396.481628,198.709930 395.147797,198.042999 
	C272.471954,136.702942 149.790939,75.373222 27.125507,14.012371 
	C18.691141,9.793253 10.372474,5.342845 2.000000,1.000000 
	C46.354229,1.000000 90.708458,1.000000 135.725708,1.286007 
	C257.741791,62.252594 379.094818,122.933174 501.000000,183.889832 
	C501.000000,122.244789 501.000000,61.622395 501.000000,1.000000 
	C514.020874,1.000000 527.041809,1.000000 540.531372,1.000000 
z"/>
<path fill="#FFFFFF" opacity="1.000000" stroke="none" 
	d="
M661.468628,601.000000 
	C661.000000,521.196106 661.000000,441.392181 661.000000,360.999268 
	C840.878479,360.999268 1020.470581,360.999268 1200.531372,360.999634 
	C1201.000000,374.020905 1201.000000,387.041779 1200.531372,400.531067 
	C1112.401001,400.999451 1024.739258,400.999451 935.746948,400.999451 
	C937.581604,402.100616 938.109070,402.467194 938.677734,402.751465 
	C1024.944458,445.873840 1111.212891,488.992706 1197.497925,532.078247 
	C1198.555176,532.606140 1199.827881,532.702332 1201.000000,533.000000 
	C1201.000000,540.354248 1201.000000,547.708496 1200.650635,555.481689 
	C1098.415283,504.956268 996.536682,453.996887 894.602112,403.149567 
	C891.913574,401.808441 888.620300,401.106049 885.603027,401.087646 
	C859.607056,400.929077 833.609741,400.996460 807.612793,400.996460 
	C806.056396,400.996460 804.500061,400.996490 802.943665,400.996490 
	C804.305420,402.564148 805.718201,403.329529 807.154602,404.047729 
	C936.580872,468.760651 1066.009766,533.468445 1195.428101,598.197449 
	C1197.020874,598.994080 1198.479004,600.059875 1200.000000,601.000000 
	C1155.645752,601.000000 1111.291504,601.000000 1066.301270,600.694824 
	C944.316711,539.716858 822.968323,479.044067 701.000000,418.061340 
	C701.000000,479.534607 701.000000,540.267273 701.000000,601.000000 
	C687.979126,601.000000 674.958191,601.000000 661.468628,601.000000 
z"/>
<path fill="#FFFEFE" opacity="1.000000" stroke="none" 
	d="
M1201.000000,240.531342 
	C1021.198486,241.000000 841.396973,241.000000 660.998596,241.000000 
	C660.998596,161.127487 660.998596,81.532402 660.999268,1.468657 
	C674.020874,1.000000 687.041809,1.000000 700.531555,1.468657 
	C701.000427,62.358627 701.000427,122.779938 701.000427,183.700089 
	C702.868896,182.878036 704.230469,182.347473 705.531860,181.696655 
	C824.594177,122.158157 943.652283,62.611366 1062.702881,3.049505 
	C1063.855225,2.472976 1064.903320,1.687785 1066.000000,0.999996 
	C1080.687622,1.000000 1095.375122,1.000000 1110.304565,1.257956 
	C978.188293,67.705597 845.830139,133.895279 713.472046,200.084961 
	C713.555664,200.390015 713.639221,200.695053 713.722839,201.000107 
	C715.324768,201.000107 716.926758,201.000092 718.528687,201.000092 
	C744.187500,201.000092 769.847107,201.092102 795.504333,200.891983 
	C798.992126,200.864807 802.791565,200.023438 805.903687,198.470703 
	C935.792725,133.664780 1065.620483,68.736160 1195.445435,3.801769 
	C1197.033447,3.007475 1198.484863,1.939960 1200.000000,0.999998 
	C1200.333252,2.322701 1200.953247,3.644563 1200.957153,4.968211 
	C1201.018066,25.999563 1201.000000,47.031147 1200.680176,68.288681 
	C1112.954590,112.190826 1025.548706,155.866501 938.149719,199.556152 
	C937.700684,199.780624 937.349915,200.201675 936.388123,201.000000 
	C1025.152222,201.000000 1113.076050,201.000000 1201.000000,201.000000 
	C1201.000000,214.020889 1201.000000,227.041794 1201.000000,240.531342 
z"/>
<path fill="#FFFFFF" opacity="1.000000" stroke="none" 
	d="
M1.000000,361.468658 
	C180.801346,361.000000 360.602692,361.000000 541.000732,361.000000 
	C541.000732,440.872864 541.000732,520.467773 541.000366,600.531372 
	C527.979126,601.000000 514.958191,601.000000 501.468750,600.531372 
	C501.000153,539.685730 501.000153,479.308746 501.000153,418.298615 
	C498.759766,419.344574 497.273773,419.996307 495.824219,420.720947 
	C377.291595,479.977844 258.761230,539.239258 140.238098,598.515198 
	C138.776718,599.246094 137.410583,600.167480 136.000000,601.000000 
	C121.645775,601.000000 107.291542,601.000000 92.501740,600.639954 
	C93.102982,599.751038 94.136200,599.214905 95.177170,598.694336 
	C216.355408,538.097717 337.534576,477.502869 458.712311,416.905212 
	C468.756165,411.882538 478.790466,406.840729 488.829193,401.807800 
	C488.777679,401.537323 488.726135,401.266846 488.674622,400.996368 
	C487.102234,400.996368 485.529877,400.996368 483.957489,400.996368 
	C457.969330,400.996368 431.980682,400.919830 405.993713,401.095398 
	C402.825165,401.116821 399.375519,401.911011 396.543823,403.324280 
	C266.370361,468.293182 136.250580,533.369690 6.134064,598.452698 
	C4.692132,599.174011 3.375253,600.145386 1.999999,601.000000 
	C1.666667,599.677307 1.046681,598.355469 1.042848,597.031799 
	C0.981958,576.000427 1.000000,554.968872 1.320169,533.711731 
	C2.545791,533.067810 3.463237,532.673462 4.354985,532.227722 
	C90.273384,489.278900 176.190292,446.327118 262.101440,403.363831 
	C263.157532,402.835663 264.138428,402.157166 266.071136,401.000000 
	C176.933533,401.000000 88.966766,401.000000 1.000000,401.000000 
	C1.000000,387.979095 1.000000,374.958221 1.000000,361.468658 
z"/>
<path fill="#012169" opacity="1.000000" stroke="none" 
	d="
M1065.531372,0.999996 
	C1064.903320,1.687785 1063.855225,2.472976 1062.702881,3.049505 
	C943.652283,62.611366 824.594177,122.158157 705.531860,181.696655 
	C704.230469,182.347473 702.868896,182.878036 701.000427,183.700089 
	C701.000427,122.779938 701.000427,62.358627 701.000244,1.468657 
	C822.354248,1.000000 943.708496,1.000000 1065.531372,0.999996 
z"/>
<path fill="#012169" opacity="1.000000" stroke="none" 
	d="
M701.468628,601.000000 
	C701.000000,540.267273 701.000000,479.534607 701.000000,418.061340 
	C822.968323,479.044067 944.316711,539.716858 1065.832520,600.694824 
	C944.645752,601.000000 823.291565,601.000000 701.468628,601.000000 
z"/>
<path fill="#022169" opacity="1.000000" stroke="none" 
	d="
M136.468658,601.000000 
	C137.410583,600.167480 138.776718,599.246094 140.238098,598.515198 
	C258.761230,539.239258 377.291595,479.977844 495.824219,420.720947 
	C497.273773,419.996307 498.759766,419.344574 501.000153,418.298615 
	C501.000153,479.308746 501.000153,539.685730 501.000061,600.531372 
	C379.645782,601.000000 258.291534,601.000000 136.468658,601.000000 
z"/>
<path fill="#022169" opacity="1.000000" stroke="none" 
	d="
M500.531342,1.000000 
	C501.000000,61.622395 501.000000,122.244789 501.000000,183.889832 
	C379.094818,122.933174 257.741791,62.252594 136.194366,1.286007 
	C257.354218,1.000000 378.708466,1.000000 500.531342,1.000000 
z"/>
<path fill="#C91230" opacity="1.000000" stroke="none" 
	d="
M2.468657,601.000000 
	C3.375253,600.145386 4.692132,599.174011 6.134064,598.452698 
	C136.250580,533.369690 266.370361,468.293182 396.543823,403.324280 
	C399.375519,401.911011 402.825165,401.116821 405.993713,401.095398 
	C431.980682,400.919830 457.969330,400.996368 483.957489,400.996368 
	C485.529877,400.996368 487.102234,400.996368 488.674622,400.996368 
	C488.726135,401.266846 488.777679,401.537323 488.829193,401.807800 
	C478.790466,406.840729 468.756165,411.882538 458.712311,416.905212 
	C337.534576,477.502869 216.355408,538.097717 95.177170,598.694336 
	C94.136200,599.214905 93.102982,599.751038 92.033081,600.639954 
	C62.312439,601.000000 32.624878,601.000000 2.468657,601.000000 
z"/>
<path fill="#C8112F" opacity="1.000000" stroke="none" 
	d="
M1199.531372,0.999994 
	C1198.484863,1.939960 1197.033447,3.007475 1195.445435,3.801769 
	C1065.620483,68.736160 935.792725,133.664780 805.903687,198.470703 
	C802.791565,200.023438 798.992126,200.864807 795.504333,200.891983 
	C769.847107,201.092102 744.187500,201.000092 718.528687,201.000092 
	C716.926758,201.000092 715.324768,201.000107 713.722839,201.000107 
	C713.639221,200.695053 713.555664,200.390015 713.472046,200.084961 
	C845.830139,133.895279 978.188293,67.705597 1110.773193,1.257956 
	C1140.354248,1.000000 1169.708496,1.000000 1199.531372,0.999994 
z"/>
<path fill="#022269" opacity="1.000000" stroke="none" 
	d="
M1201.000000,200.531342 
	C1113.076050,201.000000 1025.152222,201.000000 936.388123,201.000000 
	C937.349915,200.201675 937.700684,199.780624 938.149719,199.556152 
	C1025.548706,155.866501 1112.954590,112.190826 1200.680176,68.757339 
	C1201.000000,112.687561 1201.000000,156.375122 1201.000000,200.531342 
z"/>
<path fill="#022269" opacity="1.000000" stroke="none" 
	d="
M1201.000000,532.531372 
	C1199.827881,532.702332 1198.555176,532.606140 1197.497925,532.078247 
	C1111.212891,488.992706 1024.944458,445.873840 938.677734,402.751465 
	C938.109070,402.467194 937.581604,402.100616 935.746948,400.999451 
	C1024.739258,400.999451 1112.401001,400.999451 1200.531372,400.999725 
	C1201.000000,444.687561 1201.000000,488.375122 1201.000000,532.531372 
z"/>
<path fill="#022269" opacity="1.000000" stroke="none" 
	d="
M1.000000,401.468658 
	C88.966766,401.000000 176.933533,401.000000 266.071136,401.000000 
	C264.138428,402.157166 263.157532,402.835663 262.101440,403.363831 
	C176.190292,446.327118 90.273384,489.278900 4.354985,532.227722 
	C3.463237,532.673462 2.545791,533.067810 1.320169,533.243042 
	C1.000000,489.312439 1.000000,445.624878 1.000000,401.468658 
z"/>
<path fill="#022269" opacity="1.000000" stroke="none" 
	d="
M1.000000,69.468658 
	C2.331009,69.347740 3.773049,69.473259 4.977191,70.074913 
	C90.882874,112.997803 176.769669,155.958481 262.656952,198.918182 
	C263.483734,199.331726 264.296204,199.773849 264.966492,200.999985 
	C177.290100,200.999985 89.613708,200.999985 1.468657,201.000000 
	C1.000000,157.312439 1.000000,113.624878 1.000000,69.468658 
z"/>
<path fill="#C81230" opacity="1.000000" stroke="none" 
	d="
M1200.500000,601.000000 
	C1198.479004,600.059875 1197.020874,598.994080 1195.428101,598.197449 
	C1066.009766,533.468445 936.580872,468.760651 807.154602,404.047729 
	C805.718201,403.329529 804.305420,402.564148 802.943665,400.996490 
	C804.500061,400.996490 806.056396,400.996460 807.612793,400.996460 
	C833.609741,400.996460 859.607056,400.929077 885.603027,401.087646 
	C888.620300,401.106049 891.913574,401.808441 894.602112,403.149567 
	C996.536682,453.996887 1098.415283,504.956268 1200.650635,555.950317 
	C1201.000000,571.000000 1201.000000,586.000000 1200.500000,601.000000 
z"/>
<path fill="#C8112F" opacity="1.000000" stroke="none" 
	d="
M1.500000,1.000000 
	C10.372474,5.342845 18.691141,9.793253 27.125507,14.012371 
	C149.790939,75.373222 272.471954,136.702942 395.147797,198.042999 
	C396.481628,198.709930 397.796173,199.415482 400.026733,200.574188 
	C397.990326,200.773331 396.829742,200.985092 395.669037,200.985901 
	C368.848022,201.004593 342.026550,201.072037 315.206726,200.894394 
	C312.384918,200.875717 309.363464,199.807495 306.786407,198.521347 
	C205.071915,147.758377 103.398201,96.913658 1.359594,46.039780 
	C1.000000,31.000000 1.000000,16.000000 1.500000,1.000000 
z"/>
</svg>